<?xml version="1.0" standalone="no"?>
<!DOCTYPE svg PUBLIC "-//W3C//DTD SVG 20010904//EN"
 "http://www.w3.org/TR/2001/REC-SVG-20010904/DTD/svg10.dtd">
<svg version="1.0" xmlns="http://www.w3.org/2000/svg"
 width="500.000000pt" height="500.000000pt" viewBox="0 0 500.000000 500.000000"
 preserveAspectRatio="xMidYMid meet">

<defs>
    <linearGradient id="lightPinkSilverGradient" x1="0%" y1="0%" x2="100%" y2="100%">
    <stop offset="0%" stop-color="#FFE4E1" /> <stop offset="50%" stop-color="#D8BFD8" /> <stop offset="75%" stop-color="#C0C0C0" /> <stop offset="100%" stop-color="#7D7D7D" /> </linearGradient>
</defs>
<g transform="translate(0.000000,500.000000) scale(0.100000,-0.100000)"
fill="url(#lightPinkSilverGradient)" stroke="none">


<path d="M4037 3664 c-3 -10 -9 -37 -13 -59 -13 -74 -32 -91 -134 -115 l-55
-13 65 -16 c36 -9 71 -20 78 -24 20 -13 44 -67 51 -116 4 -31 11 -46 21 -46
11 0 17 16 21 60 9 78 42 110 124 120 33 5 54 12 52 18 -2 6 -33 18 -69 27
-37 9 -73 21 -81 28 -7 6 -19 38 -26 69 -17 74 -27 93 -34 67z m43 -160 c10
-11 11 -23 4 -42 -12 -34 -34 -38 -65 -14 -21 17 -22 23 -11 46 13 30 52 35
72 10z"/>
<path d="M1315 3198 c-191 -194 -342 -354 -337 -356 6 -2 37 2 68 7 32 6 100
11 152 11 l94 0 77 74 c42 41 89 79 104 85 16 6 61 11 102 11 73 0 105 12 62
24 -36 10 -154 7 -184 -5 -15 -5 -50 -32 -78 -59 -88 -85 -118 -100 -201 -100
-40 0 -75 4 -79 9 -5 10 250 284 429 460 64 64 97 90 100 80 2 -8 21 -74 41
-147 38 -141 66 -215 85 -227 15 -10 -17 -45 -41 -45 -16 0 -245 -204 -303
-269 -25 -28 -40 -27 -68 8 -40 47 -57 51 -210 51 l-143 0 203 -203 c111 -111
202 -207 202 -214 0 -6 12 -21 26 -32 15 -12 294 -285 621 -608 327 -324 599
-589 604 -591 11 -4 -12 62 -91 265 l-62 158 -91 88 c-106 101 -163 147 -186
147 -9 0 30 -45 87 -103 103 -104 119 -124 172 -232 31 -62 39 -105 19 -105
-7 0 -143 132 -304 293 -160 160 -423 423 -584 582 -304 301 -491 497 -491
515 0 19 132 12 165 -9 47 -29 108 -93 135 -141 14 -25 145 -165 295 -317 226
-227 275 -271 293 -267 l21 6 3 374 c2 264 6 376 15 385 7 7 23 8 42 4 l31 -7
-2 -411 c-2 -375 -1 -416 15 -452 32 -72 52 -80 212 -80 l140 0 78 37 c57 28
97 56 145 105 73 72 71 95 -3 42 -25 -18 -48 -30 -51 -26 -3 3 6 41 21 84 22
61 29 103 33 193 6 139 -8 225 -52 340 -19 47 -32 87 -30 89 1 1 36 -20 77
-48 40 -28 77 -51 81 -51 18 0 -34 66 -84 108 -64 52 -154 97 -225 112 -70 15
-554 25 -585 12 -24 -9 -24 -10 18 -21 71 -20 70 -16 78 -393 4 -216 3 -338
-3 -338 -11 0 -480 474 -519 525 l-26 35 160 167 c88 93 168 175 178 185 18
15 88 16 890 11 l870 -6 182 -179 182 -179 -92 -100 c-51 -54 -98 -109 -104
-122 -6 -12 -14 -51 -18 -85 -8 -72 -39 -178 -68 -235 -11 -22 -18 -41 -16
-43 5 -4 721 725 727 739 2 6 -9 8 -29 4 -18 -4 -89 -7 -159 -7 l-126 -1 -20
-31 c-41 -64 -40 -64 -203 90 -82 77 -166 148 -186 156 -40 17 -46 38 -20 74
9 13 27 64 40 115 41 155 64 217 81 217 8 0 132 -118 275 -261 188 -189 256
-264 246 -270 -19 -13 -125 -11 -170 3 -29 8 -56 30 -97 75 -38 43 -67 66 -91
73 -44 12 -197 13 -204 1 -8 -12 44 -21 123 -21 l66 0 85 -84 85 -84 158 -4
c86 -2 157 -1 157 2 0 3 -152 157 -337 342 l-338 336 -290 7 c-159 3 -295 2
-302 -2 -8 -6 62 -53 203 -137 122 -74 218 -125 223 -120 4 5 36 51 71 102 64
95 77 109 88 97 8 -8 -90 -395 -101 -395 -4 0 -38 31 -75 68 -46 46 -141 117
-302 225 l-234 157 -285 0 c-228 0 -288 -3 -300 -14 -9 -7 -125 -86 -258 -175
-172 -115 -254 -176 -284 -212 -31 -37 -44 -47 -54 -39 -7 6 -23 54 -35 106
-12 53 -33 128 -46 167 -26 76 -30 122 -13 132 13 9 27 -9 80 -100 49 -83 77
-115 99 -115 9 0 43 16 76 37 32 20 124 74 204 120 80 47 149 89 154 94 6 5
-112 9 -301 9 l-311 0 -347 -352z m803 303 c10 -6 -6 -19 -55 -47 -37 -21 -95
-55 -127 -76 -89 -57 -104 -53 -166 39 -46 69 -50 78 -33 84 26 11 365 10 381
0z m436 1 c6 -10 -175 -144 -329 -245 -114 -75 -163 -113 -154 -121 3 -3 23 4
45 15 33 18 462 301 519 343 19 14 28 10 130 -61 335 -231 505 -337 505 -314
0 5 -78 62 -172 127 -196 133 -321 224 -326 236 -2 4 -11 8 -20 8 -15 1 -14 2
2 12 12 7 47 9 94 5 93 -7 125 -23 359 -183 165 -112 283 -215 283 -245 0 -9
-42 -11 -182 -6 -101 4 -426 10 -723 14 -495 6 -542 5 -557 -10 -18 -18 -118
-22 -168 -8 -31 9 -30 44 3 79 26 28 235 171 293 200 22 11 47 28 54 37 26 31
141 108 173 115 45 11 165 12 171 2z m1024 0 c9 -6 5 -19 -19 -53 -43 -60 -90
-109 -106 -109 -14 0 -237 133 -263 157 -12 11 17 13 180 13 107 0 201 -4 208
-8z m-1161 -703 c108 -41 194 -159 229 -315 22 -103 16 -263 -15 -354 -44
-127 -143 -220 -257 -241 -59 -11 -155 -5 -186 12 -33 18 -38 80 -38 475 -1
350 1 389 16 406 39 42 161 50 251 17z m1789 -30 c8 -13 -464 -489 -484 -489
-15 0 -5 103 14 140 7 14 47 66 89 115 42 50 83 101 90 115 13 25 89 94 129
117 27 16 152 17 162 2z"/>
<path d="M2705 2851 l-40 -7 47 -21 c53 -24 68 -46 68 -97 0 -34 14 -55 28
-41 4 4 9 32 12 62 6 63 21 80 63 69 l27 -6 0 -455 0 -455 -50 0 -50 0 0 90
c0 50 -4 90 -9 90 -13 0 -21 -27 -21 -73 0 -60 -28 -110 -68 -123 -18 -6 -34
-15 -35 -20 -1 -5 85 -11 205 -14 113 -3 209 -7 212 -10 3 -3 -22 -28 -56 -55
-33 -28 -95 -87 -137 -131 -70 -73 -81 -92 -116 -180 -70 -183 -114 -308 -110
-313 5 -4 450 447 694 704 158 166 191 223 224 391 18 94 20 116 10 195 -19
143 -77 252 -172 320 -97 70 -150 80 -436 84 -137 2 -268 0 -290 -4z m537 -93
c55 -33 99 -86 134 -162 25 -54 25 -60 22 -238 -3 -173 -4 -186 -29 -238 -37
-78 -108 -153 -171 -180 -40 -18 -77 -25 -150 -28 l-98 -4 0 442 0 442 123 -3
c112 -4 126 -6 169 -31z m138 -8 c59 -30 109 -85 144 -159 31 -65 31 -68 31
-226 l0 -160 -48 -92 c-44 -84 -69 -114 -258 -310 -202 -211 -413 -413 -431
-413 -12 0 -10 8 18 83 22 58 43 86 131 180 57 61 116 130 131 153 19 31 47
53 97 81 99 54 186 142 214 218 35 92 44 159 38 290 -5 144 -29 226 -87 307
-22 31 -40 59 -40 62 0 11 21 6 60 -14z"/>
</g>
</svg>
