<svg width="26" height="26" viewBox="0 0 26 26" fill="none" xmlns="http://www.w3.org/2000/svg">
<circle cx="13" cy="13" r="13" fill="#ec9712"/>
<path d="M17.4493 7.8543L19.8391 10.2446C19.9398 10.3453 19.9398 10.5096 19.8391 10.6103L14.0527 16.3978L11.594 16.6708C11.2655 16.7079 10.9873 16.4296 11.0244 16.101L11.2973 13.6418L17.0837 7.8543C17.1844 7.7536 17.3486 7.7536 17.4493 7.8543ZM21.7414 7.24746L20.4485 5.95427C20.0458 5.55147 19.3914 5.55147 18.986 5.95427L18.0481 6.89236C17.9474 6.99306 17.9474 7.15736 18.0481 7.25806L20.4379 9.64833C20.5386 9.74903 20.7028 9.74903 20.8035 9.64833L21.7414 8.71024C22.1441 8.3048 22.1441 7.65025 21.7414 7.24746ZM16.9565 14.8237V17.5214H8.47825V9.04149H14.5667C14.6515 9.04149 14.731 9.00704 14.7919 8.94874L15.8517 7.88875C16.053 7.68735 15.91 7.34551 15.6265 7.34551H8.05433C7.35223 7.34551 6.78259 7.91525 6.78259 8.6175V17.9454C6.78259 18.6476 7.35223 19.2174 8.05433 19.2174H17.3804C18.0825 19.2174 18.6522 18.6476 18.6522 17.9454V13.7637C18.6522 13.4802 18.3104 13.3397 18.109 13.5385L17.0492 14.5985C16.9909 14.6594 16.9565 14.7389 16.9565 14.8237Z" fill="white"/>
</svg>
